<svg width="40" height="40" viewBox="0 0 40 40" fill="none" xmlns="http://www.w3.org/2000/svg">
<g clip-path="url(#clip0_37_4)">
<path d="M14.7163 16.205C15.3388 15.8275 15.6538 15.1425 15.6538 14.1813C15.6538 13.1188 15.2363 12.4013 14.41 12.055C13.7175 11.8188 12.82 11.7013 11.7488 11.7013H5.78751V16.7638H12.315C13.2913 16.7638 14.1025 16.575 14.7163 16.205ZM14.0713 14.1813C14.0713 14.5438 14.0088 14.78 13.89 14.85C13.5275 15.07 13 15.1813 12.3075 15.1813H7.37001V13.2838H11.7475C12.6213 13.2838 13.33 13.37 13.85 13.5363C13.9288 13.575 14.07 13.6388 14.07 14.1825L14.0713 14.1813ZM14.6463 20.7325C14.1113 20.4888 13.3475 20.355 12.3863 20.3463H5.78751V26.4413H12.3075C13.2838 26.4413 14.055 26.3075 14.5988 26.04C15.5988 25.5438 16.1025 24.5838 16.1025 23.19C16.11 22.0088 15.6225 21.1813 14.6463 20.7325ZM7.37001 21.9288H12.3863C13.3463 21.9363 13.8038 22.0863 13.9925 22.1725C14.2763 22.3063 14.5275 22.48 14.5275 23.1888C14.5275 24.315 14.1025 24.52 13.8975 24.6213C13.7475 24.6925 13.3075 24.8575 12.3075 24.8575H7.37001V21.9288ZM33.1338 17.685C32.4325 17.0863 31.5588 16.78 30.5275 16.78C29.4088 16.78 28.52 17.1025 27.8975 17.7488C27.275 18.3863 26.8813 19.26 26.7325 20.3475L26.725 20.4188H34.3238L34.3163 20.3563C34.23 19.1825 33.8363 18.285 33.135 17.6875L33.1338 17.685ZM29.0475 18.8263C29.1813 18.6925 29.5438 18.3538 30.5275 18.3538C31.1413 18.3538 31.6375 18.5113 32.0388 18.8263H29.0463H29.0475ZM40.1025 19.6925C39.8663 18.1725 39.3388 16.81 38.5363 15.6375C37.7963 14.535 36.875 13.6688 35.78 13.0388V6.75504H25.2913V13.1013C24.6538 13.4875 24.0713 13.9438 23.5275 14.4875C22.2913 15.7313 21.48 17.33 21.0788 19.2513C20.7875 18.8263 20.4413 18.44 20.055 18.1013C20.11 18.0388 20.15 17.9913 20.1888 17.9438C21.11 16.8338 21.575 15.4 21.575 13.6763C21.575 12.03 21.1338 10.5813 20.26 9.36879C18.835 7.42379 16.4888 6.40754 13.2913 6.35254H-0.141235V31.785H12.4888C13.7175 31.785 14.89 31.675 15.9613 31.4463C17.1575 31.1938 18.2138 30.7213 19.1025 30.0363C19.89 29.4463 20.5438 28.7138 21.0625 27.855C21.2675 27.5325 21.4488 27.1938 21.5975 26.8388C22.1175 28.1063 22.8725 29.1538 23.8813 29.965C25.8338 31.54 28.1175 32.335 30.6688 32.335C33.7713 32.335 36.2438 31.3588 38.015 29.43C39.1888 28.1863 39.8575 26.895 40.015 25.5875L40.1175 24.705H40.2275L40.2513 23.2088C40.2913 21.7438 40.235 20.555 40.1013 19.6888L40.1025 19.6925ZM17.2838 18.1963L17.1575 18.2588L17.2913 18.3063C18.4175 18.7163 19.275 19.3688 19.85 20.2588C20.425 21.1488 20.7163 22.2425 20.7163 23.5025C20.7163 24.81 20.385 25.9988 19.7238 27.0463C19.3063 27.7388 18.7788 28.3213 18.1563 28.7938C17.455 29.3288 16.605 29.7075 15.6525 29.9038C14.6838 30.1088 13.6288 30.2113 12.5025 30.2113H1.44001V7.93629H13.2275C15.9288 7.97629 17.865 8.77129 18.9838 10.2988C19.6613 11.2363 20 12.37 20 13.685C20 15.0313 19.6538 16.1263 18.9763 16.945C18.59 17.4013 18.0238 17.8175 17.2838 18.1963ZM30.5275 11.7475C30.1338 11.7475 29.7475 11.7638 29.3775 11.8025H26.8738V8.33754H34.205V11.8025H31.7013C31.315 11.7713 30.9213 11.7475 30.5275 11.7475ZM26.6225 23.2125C26.6938 24.89 27.2838 26.0788 28.3863 26.7563C29.055 27.1738 29.8663 27.3863 30.8038 27.3863C31.8038 27.3863 32.6225 27.1263 33.245 26.615C33.5838 26.34 33.8825 25.9613 34.135 25.4888H38.45C38.3163 26.4338 37.7888 27.4025 36.8675 28.3788C35.4025 29.9688 33.3238 30.7725 30.6788 30.7725C28.4975 30.7725 26.545 30.095 24.8838 28.7488C23.2225 27.41 22.38 25.19 22.38 22.1663C22.38 19.3313 23.1438 17.1188 24.64 15.6075C25.915 14.3238 27.5375 13.5763 29.4663 13.3788H31.6163C32.6163 13.4813 33.545 13.7175 34.3875 14.095C35.5288 14.6063 36.4825 15.4263 37.2225 16.5275C37.8913 17.4963 38.3325 18.645 38.53 19.9288C38.6488 20.685 38.695 21.7638 38.6713 23.1488H26.6238V23.2113L26.6225 23.2125ZM32.2525 25.385C31.9063 25.6688 31.4338 25.8025 30.8038 25.8025C30.1575 25.8025 29.6463 25.6763 29.2288 25.4163C29.0238 25.29 28.7725 25.1013 28.5675 24.7238H32.7488C32.5913 25.0225 32.4263 25.2438 32.2525 25.385Z" fill="white"/>
</g>
<defs>
<clipPath id="clip0_37_4">
<rect width="40" height="40" fill="white"/>
</clipPath>
</defs>
</svg>
